<?xml version="1.0" encoding="utf-8"?>
<!-- Generator: Adobe Illustrator 23.0.0, SVG Export Plug-In . SVG Version: 6.00 Build 0)  -->
<svg version="1.1" id="Capa_1" xmlns="http://www.w3.org/2000/svg" xmlns:xlink="http://www.w3.org/1999/xlink" x="0px" y="0px"
	 viewBox="0 0 360.8 52.7" style="enable-background:new 0 0 360.8 52.7;" xml:space="preserve">
<style type="text/css">
	.st0{fill:#FFFFFF;}
	.st1{fill-rule:evenodd;clip-rule:evenodd;fill:#DADADA;}
	.st2{fill-rule:evenodd;clip-rule:evenodd;fill:#E52D36;}
	.st3{fill-rule:evenodd;clip-rule:evenodd;fill:#EE790F;}
	.st4{fill-rule:evenodd;clip-rule:evenodd;fill:#FBC82C;}
	.st5{fill-rule:evenodd;clip-rule:evenodd;fill:#8CBE2F;}
	.st6{fill-rule:evenodd;clip-rule:evenodd;fill:#0077B9;}
	.st7{fill-rule:evenodd;clip-rule:evenodd;fill:#B1026D;}
	.st8{fill-rule:evenodd;clip-rule:evenodd;fill:#2C2C83;}
	.st9{fill-rule:evenodd;clip-rule:evenodd;fill:#00785C;}
	.st10{fill-rule:evenodd;clip-rule:evenodd;fill:#A5A300;}
	.st11{fill-rule:evenodd;clip-rule:evenodd;fill:#EA5D0B;}
</style>
<g>
	<path class="st0" d="M78.8,43.7c-0.4,0-0.8,0-1.3-0.1c-0.5-0.1-1-0.3-1.6-0.6c-0.6-0.3-1.1-0.7-1.6-1.1c-0.6-0.5-1-1.1-1.4-2
		c-0.4-0.8-0.8-1.8-1-3c-0.3-1.2-0.4-2.6-0.4-4.2V21c0-1.7,0.1-3.1,0.4-4.2c0.3-1.1,0.7-2.2,1-3c0.4-0.8,0.9-1.4,1.6-1.9
		c0.7-0.5,1.2-0.8,1.8-1.1c0.6-0.3,1.2-0.4,1.9-0.5c0.7-0.1,1.2-0.1,1.7-0.1c1.3,0,2.4,0.2,3.4,0.6c0.9,0.4,1.7,0.8,2.3,1.5
		c0.6,0.7,0.9,1.4,1.2,2.3c0.3,0.8,0.4,1.8,0.4,2.7c0,0.8,0,1.3-0.1,2c-0.1,0.7-0.2,1.2-0.4,2h-3.9v-1.7c0-3.6-0.9-5.4-2.9-5.4
		c-0.6,0-0.9,0.1-1.4,0.3c-0.5,0.2-0.8,0.5-0.9,0.9c-0.2,0.5-0.5,1-0.6,1.7c-0.1,0.7-0.2,1.6-0.2,2.6v14.9c0,1,0.1,1.9,0.2,2.5
		c0.1,0.7,0.3,1.2,0.6,1.6s0.6,0.7,0.9,0.8c0.4,0.2,0.8,0.3,1.3,0.3c0.6,0,1-0.2,1.4-0.5c0.4-0.3,0.8-0.7,0.9-1.2
		c0.2-0.6,0.5-1.1,0.6-1.8c0.1-0.7,0.2-1.4,0.2-2.3v-4.3h-2.5v-3.3h7.4V43h-3.3l-0.6-3.1c-0.7,1.2-1.3,2.1-2.2,2.6
		C80.9,43.4,80,43.7,78.8,43.7z"/>
	<path class="st0" d="M92.4,10.5h5.4c0.7,0,1.3,0,2.1,0.1c0.8,0.1,1.5,0.2,2.3,0.4c0.8,0.2,1.4,0.5,2.2,0.9c0.8,0.5,1.3,0.9,1.8,1.6
		s0.9,1.6,1.3,2.6c0.4,1,0.5,2.3,0.5,3.8v0.8c0,2.5-0.4,4.5-1,6.1s-1.8,2.7-3.2,3.4l5.3,13.1h-5.3l-4.4-12.3h-1.9v12.3h-4.9
		L92.4,10.5L92.4,10.5z M98,27.5c0.8,0,1.6-0.1,2.3-0.3s1.1-0.6,1.5-0.9c0.4-0.4,0.7-1,0.8-1.8c0.2-0.8,0.3-1.7,0.3-2.8V19
		c0-0.8-0.1-1.6-0.2-2.2c-0.1-0.6-0.4-1.1-0.8-1.5c-0.4-0.4-0.8-0.7-1.4-0.8c-0.6-0.2-1.3-0.3-2.3-0.3h-0.8v13.3L98,27.5L98,27.5z"
		/>
	<path class="st0" d="M116.1,10.5h5.7l6.1,32.8h-5.1l-0.9-5.9h-6l-0.8,5.9H110L116.1,10.5z M121.4,33.7l-2.3-16.4h-0.2l-2.3,16.4
		H121.4z"/>
	<path class="st0" d="M131.1,10.5h5c0.7,0,1.3,0,2.1,0.1c0.8,0.1,1.5,0.2,2.3,0.4c0.8,0.2,1.5,0.6,2.2,0.9c0.7,0.4,1.3,1,1.9,1.8
		c0.6,0.8,0.9,1.7,1.3,2.8c0.4,1.1,0.5,2.5,0.5,4.1v1.1c0,1.8-0.2,3.3-0.5,4.5c-0.3,1.2-0.7,2.3-1.2,3.2c-0.6,0.8-1.1,1.5-1.8,2.1
		c-0.7,0.6-1.3,0.9-2.1,1.1c-0.8,0.2-1.4,0.5-2.2,0.6s-1.4,0.1-2.1,0.1h-0.4v10h-5V10.5z M136.3,29.7c0.9,0,1.7-0.1,2.3-0.4
		s1.1-0.7,1.5-1.2c0.4-0.6,0.7-1.3,0.8-2.2c0.1-0.8,0.3-2,0.3-3.2v-3c0-0.9-0.1-1.8-0.2-2.5c-0.1-0.8-0.4-1.3-0.8-1.8
		c-0.4-0.5-0.8-0.8-1.5-1c-0.7-0.2-1.4-0.4-2.3-0.4h-0.3v15.6L136.3,29.7L136.3,29.7z"/>
	<path class="st0" d="M149.9,10.5h5v13.8h5.9V10.5h5v32.8h-5V28.1h-5.9v15.2h-5V10.5z"/>
	<path class="st0" d="M171.5,10.5h5v32.8h-5V10.5z"/>
	<path class="st0" d="M189.1,43.6c-0.5,0-1,0-1.7-0.1c-0.6-0.1-1.2-0.3-1.8-0.6c-0.6-0.3-1.1-0.7-1.7-1.1c-0.6-0.5-1-1.1-1.4-2
		c-0.4-0.8-0.8-1.8-1-3s-0.4-2.6-0.4-4.2V21c0-1.7,0.1-3.1,0.4-4.2s0.6-2.2,1-3s0.9-1.4,1.5-1.9c0.6-0.5,1.1-0.8,1.7-1.1
		c0.6-0.3,1.2-0.4,1.8-0.5c0.6-0.1,1.1-0.1,1.6-0.1c1.3,0,2.4,0.2,3.3,0.6c0.8,0.4,1.6,0.8,2.2,1.5c0.6,0.7,0.9,1.4,1.1,2.3
		c0.2,0.8,0.4,1.8,0.4,2.7c0,0.8,0,1.3-0.1,2s-0.2,1.2-0.3,2h-4v-1.7c0-1.8-0.2-3.2-0.6-4c-0.4-0.8-0.9-1.3-1.8-1.3
		c-0.5,0-0.8,0.1-1.2,0.3c-0.4,0.2-0.7,0.5-0.8,0.9c-0.2,0.5-0.4,1-0.6,1.7c-0.2,0.7-0.2,1.6-0.2,2.6v15c0,1,0.1,1.9,0.2,2.5
		s0.3,1.2,0.5,1.6s0.5,0.7,0.8,0.8c0.4,0.2,0.8,0.3,1.3,0.3c0.3,0,0.7-0.1,0.9-0.2s0.6-0.4,0.8-0.7c0.2-0.3,0.4-0.8,0.6-1.2
		c0.1-0.5,0.2-1,0.2-1.7V33h4.6v3c0,2.6-0.6,4.6-1.8,5.8C193.4,43,191.4,43.6,189.1,43.6z"/>
	<path class="st0" d="M208.6,10.5h5v32.8h-5V10.5z"/>
	<path class="st0" d="M219.1,10.5h4l8,21.9h0.1c0-0.5-0.1-1.1-0.2-1.7c-0.1-0.6-0.1-1.3-0.2-2.2c-0.1-0.8-0.1-1.7-0.1-2.7
		c0-1-0.1-2.2-0.1-3.5V10.5h4.5v32.8h-4l-7.9-21.4h-0.2c0,0.6,0.1,1.2,0.2,1.9c0.1,0.7,0.1,1.5,0.2,2.3c0.1,0.8,0.1,2,0.1,3.2
		c0,1.2,0.1,2.6,0.1,4.3v9.7h-4.4L219.1,10.5L219.1,10.5z"/>
	<path class="st0" d="M239.5,36.7c0-0.8,0-1.3,0.1-2c0.1-0.7,0.2-1.2,0.4-2h3.8v1.6c0,0.8,0.1,1.7,0.2,2.3c0.1,0.7,0.3,1.2,0.6,1.7
		c0.3,0.5,0.6,0.8,1,1c0.4,0.3,0.9,0.4,1.5,0.4c0.9,0,1.7-0.3,2.2-0.8c0.5-0.6,0.8-1.3,0.8-2.3c0-0.5,0-0.9-0.1-1.4
		c-0.1-0.5-0.2-0.8-0.4-1.3c-0.2-0.5-0.4-0.8-0.7-1.3c-0.3-0.5-0.7-1-1.1-1.6l-5.2-6.2c-0.9-1.2-1.6-2.3-2.2-3.6
		c-0.6-1.2-0.8-2.4-0.8-3.8c0-1.1,0.2-2.1,0.5-3c0.4-0.9,0.8-1.7,1.5-2.3c0.7-0.7,1.4-1.2,2.3-1.5c0.9-0.4,2-0.6,3.2-0.6
		c1.4,0,2.6,0.2,3.7,0.7s1.8,0.9,2.3,1.6c0.6,0.7,0.9,1.4,1.2,2.3s0.4,1.7,0.4,2.5c0,0.8-0.1,1.3-0.2,2c-0.1,0.7-0.2,1.2-0.4,2h-3.8
		v-1.6c0-1.8-0.3-3.1-0.8-4c-0.5-0.9-1.3-1.4-2.4-1.4c-0.9,0-1.6,0.3-2.1,0.8s-0.7,1.2-0.7,2.1c0,0.5,0,0.8,0.1,1.2
		c0.1,0.4,0.2,0.8,0.3,1c0.1,0.3,0.3,0.7,0.5,0.9s0.4,0.6,0.7,0.9l5.8,7c1,1.4,1.9,2.7,2.4,3.9s0.8,2.6,0.8,4c0,1.1-0.2,2.3-0.6,3.2
		s-0.8,1.7-1.6,2.3s-1.5,1.1-2.4,1.5c-0.9,0.4-2.1,0.6-3.3,0.6c-1.5,0-2.7-0.2-3.7-0.6c-0.9-0.4-1.8-0.9-2.3-1.6
		c-0.6-0.7-1-1.4-1.2-2.3C239.8,38.3,239.5,37.6,239.5,36.7z"/>
	<path class="st0" d="M262.2,14.4h-5.3v-3.9h15.6v3.9h-5.3v28.9h-5L262.2,14.4L262.2,14.4z"/>
	<path class="st0" d="M275.8,10.5h5v32.8h-5V10.5z"/>
	<path class="st0" d="M289.5,14.4h-5.3v-3.9h15.6v3.9h-5.3v28.9h-5L289.5,14.4L289.5,14.4z"/>
	<path class="st0" d="M303,10.5h5.1v24.1c0,1,0.1,1.9,0.2,2.5c0.1,0.7,0.3,1.2,0.5,1.6c0.2,0.4,0.5,0.7,0.8,0.8
		c0.4,0.2,0.8,0.3,1.2,0.3c0.5,0,0.9-0.1,1.3-0.3s0.7-0.5,0.9-0.8s0.4-0.9,0.6-1.6c0.2-0.7,0.2-1.5,0.2-2.5V10.5h5v22.8
		c0,1.6-0.1,3-0.4,4.1s-0.6,2.1-1,2.9c-0.5,0.8-0.9,1.4-1.4,1.8c-0.6,0.5-1.1,0.8-1.7,1c-0.6,0.3-1.1,0.4-1.8,0.5
		c-0.7,0.1-1.1,0.1-1.6,0.1c-0.5,0-1,0-1.6-0.1c-0.6-0.1-1.1-0.2-1.7-0.5c-0.6-0.3-1.1-0.6-1.7-1s-1-1-1.4-1.8
		c-0.4-0.8-0.8-1.7-1-2.8c-0.3-1.1-0.4-2.5-0.4-4.1L303,10.5L303,10.5z"/>
	<path class="st0" d="M327.2,14.4h-5.3v-3.9h15.6v3.9h-5.3v28.9h-5L327.2,14.4L327.2,14.4z"/>
	<path class="st0" d="M340.8,10.5H353v3.9h-7.2v9.8h5.5v3.9h-5.5v11.3h7.4v3.9h-12.4L340.8,10.5L340.8,10.5z"/>
</g>
<path class="st1" d="M32.3,14.8c-1.4,1.5-0.1,5.9,2.2,7.8c1.1-0.6,2.5-0.8,3.8-0.6c-0.7-0.2-1.3-0.5-2-0.8c-1.3-0.7-2.4-2.2-3-3.5
	C32.8,16.9,32.5,15.9,32.3,14.8L32.3,14.8z M5.2,25.8v-1.3c0.1-1,0.2-2.1,0.5-3.1c-0.1,2.6,0.4,5.2,2,7c0.4,0.5,0.9,1,1.5,1.4
	c0.5,0.3,1,0.6,1.5,0.9l0,0l0,0c-0.3,0.7-0.5,1.4-0.7,2.2c-0.6-0.3-1.1-0.6-1.8-1C6.2,30.5,5.4,28.2,5.2,25.8L5.2,25.8z M41.9,23.3
	c0.3-0.3,0.5-0.7,0.6-1.1c-0.5,0.2-1,0.2-1.4,0.3c-0.4,0-0.8,0-1.2,0c0.5,0.2,1,0.4,1.5,0.6C41.6,23.1,41.7,23.2,41.9,23.3
	L41.9,23.3z M9.5,36.1c-2.6,8.6,4.6,9.5,11.7,5.4l0,0l0,0c1.8,2.4,5.8,4.2,7.9,4c2.9-0.2,5.5-1.7,7.2-3.8c-1.5,1.1-3.5,1.8-5.6,2
	c-2.4,0.2-6.1-1.4-8.4-3.7h-0.1l0,0c-1,0.5-2.2,1-3.3,1.4c-2.6,0.8-5.9,1.1-8-0.8C9.9,39.4,9.4,37.7,9.5,36.1L9.5,36.1z M39.9,38
	c1.2-0.3,2.2-1.1,2.8-2.3c-0.6,0.3-1.2,0.4-1.9,0.4v0.1h-0.1C40.4,36.9,40.2,37.4,39.9,38z"/>
<path class="st2" d="M41.6,13.5c-2.6-2.5-8-3.9-8.3,0c-0.1,2.3,1.4,5.6,3.5,6.7C42.5,23.4,47.7,19.3,41.6,13.5z"/>
<path class="st3" d="M33.2,25.8c-1,2.7,0.7,5.7,3,7.5c6.1,5,10.2-1.4,8.1-6C42.5,23.4,35,21,33.2,25.8z"/>
<path class="st4" d="M39.9,31.2c-0.7-3.4-3.8-5.8-11.4-1.8c-2.7,1.4-5.2,2.5-6.3,5.4c-1.5,3.9,5.4,7.8,8.7,7.6
	C36.2,42.1,41.1,37.2,39.9,31.2z"/>
<path class="st5" d="M27.8,34.5c1.7-1.8,1.7-7.9-1.1-9.2c-4.5-2.1-11.4-1.1-13.8,3.6C5.2,43.8,18.9,43.6,27.8,34.5z"/>
<path class="st6" d="M9.8,28.9c5.9,4,9.9,1.7,14.3-2.8c10.1-10.3-5-20.9-13.8-12.8C6.5,16.6,5.1,25.7,9.8,28.9z"/>
<path class="st7" d="M28.4,9.1c-3.1-2.5-7.4,0.3-7.9,3.7c-0.5,3.6,1.2,5.4,3.4,5.8C29.9,19.6,33,12.9,28.4,9.1z"/>
<path class="st8" d="M27.5,18.2c-0.3-3.4-3-6.1-6.4-7.2c-0.3,0.6-0.6,1.2-0.7,1.9c-0.5,3.6,1.2,5.4,3.4,5.8
	C25.2,18.8,26.4,18.7,27.5,18.2z"/>
<path class="st9" d="M25.2,24.7c-4.4-1.3-10.2-0.1-12.4,4.1c-0.2,0.4-0.4,0.8-0.6,1.2c4.6,2,8.1-0.2,12-4.1
	C24.6,25.7,24.9,25.3,25.2,24.7z"/>
<path class="st10" d="M28.9,29.3c-0.1,0.1-0.3,0.1-0.4,0.2c-2.7,1.4-5.2,2.5-6.3,5.4c-0.5,1.3-0.1,2.6,0.6,3.6c1.8-1,3.4-2.4,5-3.9
	C28.7,33.6,29.1,31.3,28.9,29.3z"/>
<path class="st11" d="M32.9,27.7c0.1,2.1,1.5,4.2,3.3,5.7c1.3,1,2.5,1.5,3.6,1.8c0.3-1.2,0.3-2.5,0-3.8
	C39.3,28.6,37.4,26.6,32.9,27.7z"/>
</svg>
